<svg version="1.1" id="Layer_1" xmlns="http://www.w3.org/2000/svg" xmlns:xlink="http://www.w3.org/1999/xlink" x="0px" y="0px"
	 width="100%" viewBox="0 0 1080 1080" enable-background="new 0 0 1080 1080" xml:space="preserve">
<path fill="#FFFFFF" opacity="1.000000" stroke="none" 
	d="
M744.000000,1081.000000 
	C496.028564,1081.000000 248.557114,1081.000000 1.042840,1081.000000 
	C1.042840,721.070129 1.042840,361.140198 1.042840,1.105153 
	C360.888306,1.105153 720.776672,1.105153 1080.832520,1.105153 
	C1080.832520,360.999939 1080.832520,720.999939 1080.832520,1081.000000 
	C968.806396,1081.000000 856.653198,1081.000000 744.000000,1081.000000 
M762.856018,840.765869 
	C762.778931,840.727051 762.701904,840.688232 762.624878,840.649353 
	C762.787598,840.734131 762.950317,840.818848 762.914062,841.644043 
	C764.417908,844.787964 765.711365,848.054138 767.457275,851.057373 
	C791.169617,891.846313 823.334045,924.726196 862.288147,950.964844 
	C890.527649,969.986267 921.996094,982.527710 953.918335,993.692017 
	C969.636719,999.189270 986.050720,1002.330872 1003.025513,1000.057922 
	C1025.208862,997.087524 1042.072266,982.752563 1046.464966,962.287842 
	C1050.199707,944.888855 1047.719482,928.046997 1037.763916,913.405029 
	C1022.202087,890.517883 1010.356323,885.000793 987.133911,890.106995 
	C962.894470,895.436707 938.449097,897.479614 913.723450,897.197937 
	C874.387268,896.750000 836.910217,888.629578 802.823303,868.461182 
	C788.987122,860.274658 776.268799,850.198914 762.856018,840.765869 
M511.548431,59.936455 
	C500.206146,65.747620 491.250427,74.438393 483.069489,83.952362 
	C457.572144,113.604248 435.999969,146.092590 415.080750,179.014206 
	C393.893158,212.358231 373.483002,246.166367 357.417236,282.373993 
	C354.981384,287.863708 353.038696,293.572266 350.516876,300.086243 
	C352.011658,299.214355 352.485168,299.019958 352.860474,298.707550 
	C375.671021,279.721710 402.071869,272.931549 431.218292,275.969055 
	C439.798553,276.863281 448.272461,278.733765 456.829407,279.906525 
	C472.440491,282.046021 486.707275,287.569763 499.891632,296.151825 
	C515.848389,306.538452 527.531616,320.949280 538.692871,336.039276 
	C562.783447,368.609833 586.376221,401.480927 606.515137,436.719727 
	C633.937012,484.702179 653.944824,535.772217 671.022400,588.179688 
	C694.556274,660.399902 717.918213,732.691345 745.939331,803.358826 
	C748.705444,810.334839 752.600769,816.253113 757.829834,821.576538 
	C795.032593,859.450439 839.973755,881.061157 892.835876,886.097778 
	C898.174194,886.606445 903.552429,886.695312 909.581116,887.014343 
	C908.772217,884.411560 908.334961,882.837402 907.796753,881.298584 
	C902.187744,865.260193 896.503113,849.247986 890.952148,833.189575 
	C866.898621,763.605713 843.920715,693.628113 818.570496,624.520386 
	C791.499573,550.721802 762.881226,477.467957 733.649780,404.492493 
	C712.383545,351.401764 684.827454,301.191010 658.640076,250.408798 
	C633.210693,201.096268 607.062561,152.167648 577.991882,104.854187 
	C568.358521,89.175575 556.652710,75.500252 542.066711,64.342239 
	C533.059631,57.451931 523.268127,54.357693 511.548431,59.936455 
M578.024414,461.479889 
	C566.625305,450.039185 555.599182,438.194855 543.747498,427.243896 
	C520.827515,406.065765 498.576691,384.327271 480.169556,358.981110 
	C466.756836,340.512177 455.453491,320.822479 450.251526,298.472321 
	C448.323883,290.190216 444.853607,287.333282 436.805450,286.325592 
	C408.641937,282.799286 382.629761,287.069702 360.260437,305.664917 
	C352.203979,312.362152 343.847260,319.389648 340.729401,329.813202 
	C334.128998,351.879578 334.541412,373.818573 343.959137,395.254089 
	C351.530670,412.487579 361.309784,428.477417 373.891663,442.293274 
	C400.463593,471.471252 428.112579,499.667175 454.750610,528.786621 
	C467.982635,543.251282 480.817993,558.247803 492.242371,574.146606 
	C502.367950,588.237915 505.654053,605.568298 509.405060,622.317566 
	C510.266479,626.163879 511.863129,627.379700 515.402039,626.969788 
	C527.117126,625.612488 539.067139,625.296143 550.501831,622.704529 
	C576.946655,616.711121 598.128967,602.362793 612.571655,579.100891 
	C615.827209,573.857422 618.946960,567.801208 619.626709,561.833984 
	C621.185791,548.146301 618.718140,534.633850 614.384949,521.513306 
	C606.932739,498.948334 593.744080,479.862640 578.024414,461.479889 
M373.600220,728.981506 
	C390.517242,737.134277 408.270569,741.370972 427.144226,741.020020 
	C446.000336,740.669373 463.608032,735.442322 480.514069,727.674255 
	C514.747131,711.944702 543.991211,689.335693 569.586731,661.885132 
	C585.690308,644.614319 599.823608,625.933960 609.487976,604.193359 
	C610.147644,602.709534 610.490662,601.084961 610.980957,599.525818 
	C609.650879,599.611938 609.124207,599.989502 608.693848,600.455994 
	C595.484619,614.775696 579.305664,624.377502 560.833740,630.132141 
	C537.870056,637.286133 514.329163,638.546082 490.618134,635.536499 
	C470.406708,632.971069 452.152893,625.376648 438.213745,610.096436 
	C423.182465,593.619019 408.844543,576.503235 394.383087,559.513672 
	C382.737305,545.831970 372.325867,530.999329 357.125122,520.739441 
	C333.801514,504.996948 308.828735,499.685120 281.701355,509.168457 
	C264.964508,515.019470 251.486938,525.867249 239.093582,538.167297 
	C210.546219,566.499756 189.616028,599.924805 173.544006,636.575928 
	C165.973526,653.839966 159.857101,671.571594 156.407455,690.246094 
	C158.122818,688.631836 159.550751,686.848694 160.945053,685.039612 
	C171.065857,671.908142 182.401459,659.969055 195.968857,650.356384 
	C208.950027,641.159119 223.156097,633.897339 239.284454,634.217896 
	C269.727631,634.822937 294.889160,647.373291 312.407440,672.535339 
	C328.589478,695.778137 347.486145,715.622681 373.600220,728.981506 
M257.176056,866.684570 
	C270.088959,859.445435 283.335236,852.734009 295.833527,844.838562 
	C312.875244,834.072998 312.551422,833.685242 312.745148,813.421753 
	C312.968109,790.103210 306.140381,768.480591 297.547882,747.164490 
	C286.089691,718.739197 274.747040,690.249939 267.451721,660.375488 
	C264.270447,647.348083 262.265656,645.539490 248.683502,644.156006 
	C248.020874,644.088501 247.353760,644.059021 246.687943,644.029785 
	C229.029663,643.255737 213.767838,649.680786 199.897141,659.923340 
	C181.100616,673.803162 167.159180,692.031494 154.621353,711.432129 
	C153.520889,713.134949 153.002655,715.459106 152.904358,717.527527 
	C151.590836,745.169617 156.266617,771.795532 168.566284,796.605591 
	C181.009232,821.704712 185.380142,847.986511 183.108383,875.643921 
	C182.866333,878.590881 182.731842,881.546631 182.505096,885.176147 
	C208.682724,883.994751 233.007385,877.287598 257.176056,866.684570 
M291.376862,859.887451 
	C263.867065,876.850281 234.491043,889.171936 202.293900,893.257690 
	C186.330124,895.283386 170.096130,895.131531 153.995438,896.141174 
	C140.570480,896.982971 127.525909,894.718933 114.333672,892.629395 
	C102.577301,890.767334 90.465042,889.761536 78.595963,890.294739 
	C54.759171,891.365662 38.474091,903.938232 33.261040,924.833191 
	C31.277405,932.783997 30.778978,941.330444 31.007307,949.566467 
	C31.722286,975.356567 47.654545,994.038208 72.934082,998.910095 
	C92.741264,1002.727295 112.153831,999.419434 130.972916,993.268677 
	C176.703751,978.322205 217.050629,953.700989 253.627136,922.824158 
	C274.847321,904.910706 292.405548,883.913452 303.421753,858.029846 
	C304.322388,855.913757 305.099121,853.744873 305.933411,851.600525 
	C305.621216,851.464844 305.309052,851.329224 304.996857,851.193542 
	C300.666260,853.969421 296.335663,856.745300 291.376862,859.887451 
z"/>
<path fill="#E43B3B" opacity="1.000000" stroke="none" 
	d="
M511.897949,59.778240 
	C523.268127,54.357693 533.059631,57.451931 542.066711,64.342239 
	C556.652710,75.500252 568.358521,89.175575 577.991882,104.854187 
	C607.062561,152.167648 633.210693,201.096268 658.640076,250.408798 
	C684.827454,301.191010 712.383545,351.401764 733.649780,404.492493 
	C762.881226,477.467957 791.499573,550.721802 818.570496,624.520386 
	C843.920715,693.628113 866.898621,763.605713 890.952148,833.189575 
	C896.503113,849.247986 902.187744,865.260193 907.796753,881.298584 
	C908.334961,882.837402 908.772217,884.411560 909.581116,887.014343 
	C903.552429,886.695312 898.174194,886.606445 892.835876,886.097778 
	C839.973755,881.061157 795.032593,859.450439 757.829834,821.576538 
	C752.600769,816.253113 748.705444,810.334839 745.939331,803.358826 
	C717.918213,732.691345 694.556274,660.399902 671.022400,588.179688 
	C653.944824,535.772217 633.937012,484.702179 606.515137,436.719727 
	C586.376221,401.480927 562.783447,368.609833 538.692871,336.039276 
	C527.531616,320.949280 515.848389,306.538452 499.891632,296.151825 
	C486.707275,287.569763 472.440491,282.046021 456.829407,279.906525 
	C448.272461,278.733765 439.798553,276.863281 431.218292,275.969055 
	C402.071869,272.931549 375.671021,279.721710 352.860474,298.707550 
	C352.485168,299.019958 352.011658,299.214355 350.516876,300.086243 
	C353.038696,293.572266 354.981384,287.863708 357.417236,282.373993 
	C373.483002,246.166367 393.893158,212.358231 415.080750,179.014206 
	C435.999969,146.092590 457.572144,113.604248 483.069489,83.952362 
	C491.250427,74.438393 500.206146,65.747620 511.897949,59.778240 
z"/>
<path fill="#E43B3B" opacity="1.000000" stroke="none" 
	d="
M578.254700,461.748779 
	C593.744080,479.862640 606.932739,498.948334 614.384949,521.513306 
	C618.718140,534.633850 621.185791,548.146301 619.626709,561.833984 
	C618.946960,567.801208 615.827209,573.857422 612.571655,579.100891 
	C598.128967,602.362793 576.946655,616.711121 550.501831,622.704529 
	C539.067139,625.296143 527.117126,625.612488 515.402039,626.969788 
	C511.863129,627.379700 510.266479,626.163879 509.405060,622.317566 
	C505.654053,605.568298 502.367950,588.237915 492.242371,574.146606 
	C480.817993,558.247803 467.982635,543.251282 454.750610,528.786621 
	C428.112579,499.667175 400.463593,471.471252 373.891663,442.293274 
	C361.309784,428.477417 351.530670,412.487579 343.959137,395.254089 
	C334.541412,373.818573 334.128998,351.879578 340.729401,329.813202 
	C343.847260,319.389648 352.203979,312.362152 360.260437,305.664917 
	C382.629761,287.069702 408.641937,282.799286 436.805450,286.325592 
	C444.853607,287.333282 448.323883,290.190216 450.251526,298.472321 
	C455.453491,320.822479 466.756836,340.512177 480.169556,358.981110 
	C498.576691,384.327271 520.827515,406.065765 543.747498,427.243896 
	C555.599182,438.194855 566.625305,450.039185 578.254700,461.748779 
z"/>
<path fill="#E43B3B" opacity="1.000000" stroke="none" 
	d="
M373.266724,728.813232 
	C347.486145,715.622681 328.589478,695.778137 312.407440,672.535339 
	C294.889160,647.373291 269.727631,634.822937 239.284454,634.217896 
	C223.156097,633.897339 208.950027,641.159119 195.968857,650.356384 
	C182.401459,659.969055 171.065857,671.908142 160.945053,685.039612 
	C159.550751,686.848694 158.122818,688.631836 156.407455,690.246094 
	C159.857101,671.571594 165.973526,653.839966 173.544006,636.575928 
	C189.616028,599.924805 210.546219,566.499756 239.093582,538.167297 
	C251.486938,525.867249 264.964508,515.019470 281.701355,509.168457 
	C308.828735,499.685120 333.801514,504.996948 357.125122,520.739441 
	C372.325867,530.999329 382.737305,545.831970 394.383087,559.513672 
	C408.844543,576.503235 423.182465,593.619019 438.213745,610.096436 
	C452.152893,625.376648 470.406708,632.971069 490.618134,635.536499 
	C514.329163,638.546082 537.870056,637.286133 560.833740,630.132141 
	C579.305664,624.377502 595.484619,614.775696 608.693848,600.455994 
	C609.124207,599.989502 609.650879,599.611938 610.980957,599.525818 
	C610.490662,601.084961 610.147644,602.709534 609.487976,604.193359 
	C599.823608,625.933960 585.690308,644.614319 569.586731,661.885132 
	C543.991211,689.335693 514.747131,711.944702 480.514069,727.674255 
	C463.608032,735.442322 446.000336,740.669373 427.144226,741.020020 
	C408.270569,741.370972 390.517242,737.134277 373.266724,728.813232 
z"/>
<path fill="#E43B3B" opacity="1.000000" stroke="none" 
	d="
M256.820862,866.817078 
	C233.007385,877.287598 208.682724,883.994751 182.505096,885.176147 
	C182.731842,881.546631 182.866333,878.590881 183.108383,875.643921 
	C185.380142,847.986511 181.009232,821.704712 168.566284,796.605591 
	C156.266617,771.795532 151.590836,745.169617 152.904358,717.527527 
	C153.002655,715.459106 153.520889,713.134949 154.621353,711.432129 
	C167.159180,692.031494 181.100616,673.803162 199.897141,659.923340 
	C213.767838,649.680786 229.029663,643.255737 246.687943,644.029785 
	C247.353760,644.059021 248.020874,644.088501 248.683502,644.156006 
	C262.265656,645.539490 264.270447,647.348083 267.451721,660.375488 
	C274.747040,690.249939 286.089691,718.739197 297.547882,747.164490 
	C306.140381,768.480591 312.968109,790.103210 312.745148,813.421753 
	C312.551422,833.685242 312.875244,834.072998 295.833527,844.838562 
	C283.335236,852.734009 270.088959,859.445435 256.820862,866.817078 
z"/>
<path fill="#E43B3B" opacity="1.000000" stroke="none" 
	d="
M291.690979,859.704346 
	C296.335663,856.745300 300.666260,853.969421 304.996857,851.193542 
	C305.309052,851.329224 305.621216,851.464844 305.933411,851.600525 
	C305.099121,853.744873 304.322388,855.913757 303.421753,858.029846 
	C292.405548,883.913452 274.847321,904.910706 253.627136,922.824158 
	C217.050629,953.700989 176.703751,978.322205 130.972916,993.268677 
	C112.153831,999.419434 92.741264,1002.727295 72.934082,998.910095 
	C47.654545,994.038208 31.722286,975.356567 31.007307,949.566467 
	C30.778978,941.330444 31.277405,932.783997 33.261040,924.833191 
	C38.474091,903.938232 54.759171,891.365662 78.595963,890.294739 
	C90.465042,889.761536 102.577301,890.767334 114.333672,892.629395 
	C127.525909,894.718933 140.570480,896.982971 153.995438,896.141174 
	C170.096130,895.131531 186.330124,895.283386 202.293900,893.257690 
	C234.491043,889.171936 263.867065,876.850281 291.690979,859.704346 
z"/>
<path fill="#E43B3B" opacity="1.000000" stroke="none" 
	d="
M763.041809,840.982788 
	C776.268799,850.198914 788.987122,860.274658 802.823303,868.461182 
	C836.910217,888.629578 874.387268,896.750000 913.723450,897.197937 
	C938.449097,897.479614 962.894470,895.436707 987.133911,890.106995 
	C1010.356323,885.000793 1022.202087,890.517883 1037.763916,913.405029 
	C1047.719482,928.046997 1050.199707,944.888855 1046.464966,962.287842 
	C1042.072266,982.752563 1025.208862,997.087524 1003.025513,1000.057922 
	C986.050720,1002.330872 969.636719,999.189270 953.918335,993.692017 
	C921.996094,982.527710 890.527649,969.986267 862.288147,950.964844 
	C823.334045,924.726196 791.169617,891.846313 767.457275,851.057373 
	C765.711365,848.054138 764.417908,844.787964 762.992676,841.290894 
	C763.071228,840.937683 763.041809,840.982788 763.041809,840.982788 
z"/>
<path fill="#E43B3B" opacity="1.000000" stroke="none" 
	d="
M763.092163,840.920654 
	C762.950317,840.818848 762.787598,840.734131 762.624878,840.649353 
	C762.701904,840.688232 762.778931,840.727051 762.948914,840.874329 
	C763.041809,840.982788 763.071228,840.937683 763.092163,840.920654 
z"/>
</svg>